<svg width="16" height="16" viewBox="0 0 16 16" fill="none" xmlns="http://www.w3.org/2000/svg">
<rect width="16" height="16" rx="2" fill="#4C21C5"/>
<path d="M12.1521 7.03245C10.5023 6.95482 9.25903 8.12952 8.52908 9.32492C8.84361 8.44778 8.87031 7.51112 8.60326 6.62363C8.56468 6.51754 8.50534 6.41922 8.42819 6.33125L9.08692 6.2174C10.71 5.88621 12.71 4.99354 12.9444 3.35051C13.1788 1.70748 11.4222 0.866556 10.0632 1.92224C9.21452 2.58462 8.61513 3.43848 7.63889 3.99996C6.66266 4.56143 5.34519 5.19794 4.25026 5.19794C3.65087 5.19794 3.65087 5.54208 4.16124 5.83446C5.25617 6.40887 6.63002 6.52272 7.94749 6.383C7.92375 6.43216 7.90298 6.48391 7.88814 6.53566C7.62406 7.46714 6.54397 8.47365 5.73984 9.11017C4.9357 9.74668 3.78143 10.0908 2.8319 10.6523C1.32749 11.545 2.01294 13.2527 3.69538 13.4416C5.37783 13.6304 7.05731 12.1789 7.83177 10.88C7.48163 11.9641 7.37777 13.1362 7.83177 14.1428C8.06618 14.6395 8.46083 14.7042 8.56172 14.1816C8.75162 13.2397 9.74566 12.1685 10.4904 11.4673C11.2352 10.7661 12.3598 10.3703 13.2678 9.74668C14.701 8.76604 13.8672 7.09713 12.1729 7.01951" fill="white"/>
</svg>
