<svg width="32" height="40" viewBox="0 0 32 40" fill="none" xmlns="http://www.w3.org/2000/svg">
<g clip-path="url(#clip0_2074_336)">
<path d="M27.0927 17.0468C22.692 16.8096 19.3757 20.3993 17.4286 24.0522C18.2676 21.3718 18.3388 18.5096 17.6265 15.7976C17.5236 15.4734 17.3653 15.173 17.1595 14.9041L18.9166 14.5562C23.2461 13.5442 28.5807 10.8164 29.206 5.7956C29.8313 0.774849 25.1456 -1.79483 21.5206 1.43111C19.2569 3.45522 17.6581 6.06443 15.0541 7.78019C12.4501 9.49594 8.93589 11.441 6.01529 11.441C4.41648 11.441 4.41648 12.4926 5.77784 13.386C8.69844 15.1413 12.3631 15.4892 15.8773 15.0623C15.814 15.2125 15.7585 15.3706 15.719 15.5288C15.0145 18.3752 12.1335 21.4509 9.98858 23.3959C7.84363 25.341 4.76473 26.3926 2.23196 28.1083C-1.7809 30.8361 0.0474425 36.0545 4.5352 36.6317C9.02296 37.2089 13.5028 32.7733 15.5686 28.8041C14.6346 32.117 14.3576 35.6987 15.5686 38.7745C16.1939 40.2925 17.2466 40.4902 17.5157 38.8931C18.0222 36.015 20.6737 32.7416 22.6604 30.5989C24.647 28.4562 27.6468 27.2465 30.0687 25.341C33.8916 22.3443 31.6675 17.2445 27.1481 17.0073" fill="white"/>
</g>
<defs>
<clipPath id="clip0_2074_336">
<rect width="32" height="40" fill="white"/>
</clipPath>
</defs>
</svg>
